<svg width="36" height="36" viewBox="0 0 36 36" fill="none" xmlns="http://www.w3.org/2000/svg">
<path d="M24.0001 19.4996V31.4996M12.0001 19.4996V31.4996M18.0001 22.4996V34.4996M30.0001 24.8696C31.5769 24.179 32.8682 22.9669 33.6572 21.4369C34.4461 19.9069 34.6847 18.152 34.3329 16.4668C33.9811 14.7817 33.0603 13.2689 31.7251 12.1823C30.3899 11.0958 28.7215 10.5016 27.0001 10.4996H25.11C24.6346 8.65835 23.7283 6.95649 22.466 5.53427C21.2037 4.11205 19.6215 3.01018 17.8497 2.3195C16.0779 1.62882 14.1674 1.36909 12.2756 1.56174C10.3837 1.75438 8.56477 2.39387 6.96859 3.42749C5.37242 4.46112 4.04474 5.8593 3.09501 7.50676C2.14527 9.15423 1.60066 11.0038 1.50607 12.9031C1.41148 14.8024 1.76961 16.6969 2.55096 18.4306C3.3323 20.1643 4.51448 21.6875 6.00005 22.8746" stroke="white" stroke-width="3" stroke-linecap="round" stroke-linejoin="round"/>
</svg>
