<svg width="32" height="32" viewBox="0 0 32 32" fill="none" xmlns="http://www.w3.org/2000/svg">
<path d="M23.3332 8.66675H23.3465M9.33317 2.66675H22.6665C26.3484 2.66675 29.3332 5.65152 29.3332 9.33341V22.6667C29.3332 26.3486 26.3484 29.3334 22.6665 29.3334H9.33317C5.65127 29.3334 2.6665 26.3486 2.6665 22.6667V9.33341C2.6665 5.65152 5.65127 2.66675 9.33317 2.66675ZM21.3332 15.1601C21.4977 16.2697 21.3082 17.403 20.7915 18.3988C20.2748 19.3945 19.4574 20.202 18.4553 20.7063C17.4533 21.2107 16.3178 21.3862 15.2102 21.208C14.1027 21.0298 13.0795 20.5069 12.2863 19.7136C11.4931 18.9204 10.9701 17.8972 10.7919 16.7897C10.6137 15.6822 10.7893 14.5466 11.2936 13.5446C11.798 12.5426 12.6054 11.7251 13.6011 11.2084C14.5969 10.6917 15.7302 10.5022 16.8398 10.6667C17.9717 10.8346 19.0196 11.362 19.8288 12.1712C20.6379 12.9803 21.1653 14.0282 21.3332 15.1601Z" stroke="white" stroke-width="2" stroke-linecap="round" stroke-linejoin="round"/>
</svg>
