<svg width="32" height="32" viewBox="0 0 32 32" fill="none" xmlns="http://www.w3.org/2000/svg">
<path d="M21.3332 10.6667C23.4549 10.6667 25.4897 11.5096 26.99 13.0099C28.4903 14.5102 29.3332 16.545 29.3332 18.6667V28.0001H23.9998V18.6667C23.9998 17.9595 23.7189 17.2812 23.2188 16.7811C22.7187 16.281 22.0404 16.0001 21.3332 16.0001C20.6259 16.0001 19.9476 16.281 19.4476 16.7811C18.9475 17.2812 18.6665 17.9595 18.6665 18.6667V28.0001H13.3332V18.6667C13.3332 16.545 14.176 14.5102 15.6763 13.0099C17.1766 11.5096 19.2114 10.6667 21.3332 10.6667Z" stroke="white" stroke-width="2" stroke-linecap="round" stroke-linejoin="round"/>
<path d="M7.99984 12.0001H2.6665V28.0001H7.99984V12.0001Z" stroke="white" stroke-width="2" stroke-linecap="round" stroke-linejoin="round"/>
<path d="M5.33317 8.00008C6.80593 8.00008 7.99984 6.80617 7.99984 5.33341C7.99984 3.86066 6.80593 2.66675 5.33317 2.66675C3.86041 2.66675 2.6665 3.86066 2.6665 5.33341C2.6665 6.80617 3.86041 8.00008 5.33317 8.00008Z" stroke="white" stroke-width="2" stroke-linecap="round" stroke-linejoin="round"/>
</svg>
