<svg width="244" height="82" viewBox="0 0 244 82" fill="none" xmlns="http://www.w3.org/2000/svg">
<path d="M207.171 45.8163H234.286L233.546 55.1806H206.431L207.171 45.8163Z" fill="#CC2229"/>
<mask id="mask0_58_2061" style="mask-type:luminance" maskUnits="userSpaceOnUse" x="206" y="45" width="29" height="11">
<path d="M207.171 45.8163H234.286L233.546 55.1806H206.431L207.171 45.8163Z" fill="white"/>
</mask>
<g mask="url(#mask0_58_2061)">
<path d="M207.171 45.8163V44.7302H206.164L206.085 45.7311L207.171 45.8163ZM234.286 45.8163L235.372 45.9016L235.465 44.7302H234.286V45.8163ZM233.547 55.1806V56.2667H234.553L234.632 55.2658L233.547 55.1806ZM206.431 55.1806L205.346 55.0953L205.253 56.2667H206.431V55.1806ZM207.171 45.8163V46.9024H234.286V45.8163V44.7302H207.171V45.8163ZM234.286 45.8163L233.2 45.7311L232.461 55.0953L233.547 55.1806L234.632 55.2658L235.372 45.9016L234.286 45.8163ZM233.547 55.1806V54.0946H206.431V55.1806V56.2667H233.547V55.1806ZM206.431 55.1806L207.517 55.2658L208.257 45.9016L207.171 45.8163L206.085 45.7311L205.346 55.0953L206.431 55.1806Z" fill="black" fill-opacity="0.7"/>
</g>
<path d="M116.83 54.48H146.676L148.672 45.6159H118.825L116.83 54.48Z" fill="#CC2229"/>
<path d="M147.991 46.1589L146.24 53.9371H117.51L119.261 46.1589H147.991Z" stroke="black" stroke-opacity="0.7" stroke-width="2"/>
<path d="M81.5254 54.48H107.088L108.797 45.6159H83.2345L81.5254 54.48Z" fill="#CC2229"/>
<path d="M108.138 46.1589L106.638 53.9371H82.1846L83.684 46.1589H108.138Z" stroke="black" stroke-opacity="0.7" stroke-width="2"/>
<path d="M57.1216 54.48H74.1488L76.0931 45.6159H59.066L57.1216 54.48Z" fill="#CC2229"/>
<path d="M75.4165 46.1589L73.7101 53.9371H57.7979L59.5042 46.1589H75.4165Z" stroke="black" stroke-opacity="0.7" stroke-width="2"/>
<path d="M26.6675 54.48H35.7837L37.6523 45.6159H28.5362L26.6675 54.48Z" fill="#CC2229"/>
<path d="M36.9808 46.1589L35.341 53.9371H27.3384L28.9782 46.1589H36.9808Z" stroke="black" stroke-opacity="0.7" stroke-width="2"/>
<path d="M5.44629 54.48H10.2046L12.1203 45.6159H7.36196L5.44629 54.48Z" fill="#CC2229"/>
<path d="M11.4462 46.1589L9.76497 53.9371H6.12109L7.80235 46.1589H11.4462Z" stroke="black" stroke-opacity="0.7" stroke-width="2"/>
<g filter="url(#filter0_di_58_2061)">
<path d="M41.1843 8.44437L39.8118 16.0687H30.6454L25.8907 42.9007H16.2342L20.9889 16.0687H11.8716L13.2441 8.44437H41.1843ZM60.8655 15.1401C64.4601 15.1401 67.3032 16.1013 69.3946 18.0237C71.5187 19.9461 72.5807 22.569 72.5807 25.8925C72.5807 27.0003 72.4991 27.9777 72.3357 28.8249C72.1396 29.8676 71.9435 30.617 71.7474 31.0731H53.562C53.5294 31.2686 53.513 31.5619 53.513 31.9529C53.513 33.191 53.8071 34.1033 54.3953 34.6898C55.016 35.2763 55.833 35.5695 56.846 35.5695C58.4473 35.5695 59.7217 34.8527 60.6694 33.4191H70.8651C70.1135 35.3089 68.9861 37.0032 67.4829 38.502C66.0124 39.9682 64.264 41.1249 62.238 41.9721C60.2446 42.8192 58.1205 43.2428 55.8657 43.2428C52.2712 43.2428 49.4119 42.2653 47.2877 40.3103C45.1636 38.3554 44.1016 35.6673 44.1016 32.2461C44.1016 31.2686 44.1996 30.2423 44.3957 29.167C44.9185 26.2997 45.9479 23.8234 47.4838 21.7381C49.0524 19.6203 50.9804 17.9911 53.2679 16.8507C55.5879 15.7103 58.1205 15.1401 60.8655 15.1401ZM62.8752 26.7722C62.9406 26.316 62.9732 26.0228 62.9732 25.8925C62.9732 24.8498 62.6465 24.0678 61.9929 23.5465C61.3393 22.9926 60.4897 22.7156 59.444 22.7156C58.2348 22.7156 57.1891 23.0578 56.3068 23.742C55.4245 24.4262 54.7709 25.4363 54.3463 26.7722H62.8752ZM93.4237 33.8589L101.855 15.4823H112.099L97.7863 42.9007H85.8259L81.2182 15.4823H91.463L93.4237 33.8589ZM132.708 15.1401C136.302 15.1401 139.145 16.1013 141.237 18.0237C143.361 19.9461 144.423 22.569 144.423 25.8925C144.423 27.0003 144.341 27.9777 144.178 28.8249C143.982 29.8676 143.786 30.617 143.59 31.0731H125.404C125.371 31.2686 125.355 31.5619 125.355 31.9529C125.355 33.191 125.649 34.1033 126.237 34.6898C126.858 35.2763 127.675 35.5695 128.688 35.5695C130.289 35.5695 131.564 34.8527 132.512 33.4191H142.707C141.956 35.3089 140.828 37.0032 139.325 38.502C137.855 39.9682 136.106 41.1249 134.08 41.9721C132.087 42.8192 129.963 43.2428 127.708 43.2428C124.113 43.2428 121.254 42.2653 119.13 40.3103C117.006 38.3554 115.944 35.6673 115.944 32.2461C115.944 31.2686 116.042 30.2423 116.238 29.167C116.761 26.2997 117.79 23.8234 119.326 21.7381C120.894 19.6203 122.822 17.9911 125.11 16.8507C127.43 15.7103 129.963 15.1401 132.708 15.1401ZM134.717 26.7722C134.783 26.316 134.815 26.0228 134.815 25.8925C134.815 24.8498 134.489 24.0678 133.835 23.5465C133.182 22.9926 132.332 22.7156 131.286 22.7156C130.077 22.7156 129.031 23.0578 128.149 23.742C127.267 24.4262 126.613 25.4363 126.188 26.7722H134.717ZM166.54 6.73378L160.119 42.9007H150.462L156.884 6.73378H166.54Z" fill="url(#paint0_linear_58_2061)" fill-opacity="0.01"/>
</g>
<path d="M41.1843 8.44437L39.8118 16.0687H30.6454L25.8907 42.9007H16.2342L20.9889 16.0687H11.8716L13.2441 8.44437H41.1843ZM60.8655 15.1401C64.4601 15.1401 67.3032 16.1013 69.3946 18.0237C71.5187 19.9461 72.5807 22.569 72.5807 25.8925C72.5807 27.0003 72.4991 27.9777 72.3357 28.8249C72.1396 29.8676 71.9435 30.617 71.7474 31.0731H53.562C53.5294 31.2686 53.513 31.5619 53.513 31.9529C53.513 33.191 53.8071 34.1033 54.3953 34.6898C55.016 35.2763 55.833 35.5695 56.846 35.5695C58.4473 35.5695 59.7217 34.8527 60.6694 33.4191H70.8651C70.1135 35.3089 68.9861 37.0032 67.4829 38.502C66.0124 39.9682 64.264 41.1249 62.238 41.9721C60.2446 42.8192 58.1205 43.2428 55.8657 43.2428C52.2712 43.2428 49.4119 42.2653 47.2877 40.3103C45.1636 38.3554 44.1016 35.6673 44.1016 32.2461C44.1016 31.2686 44.1996 30.2423 44.3957 29.167C44.9185 26.2997 45.9479 23.8234 47.4838 21.7381C49.0524 19.6203 50.9804 17.9911 53.2679 16.8507C55.5879 15.7103 58.1205 15.1401 60.8655 15.1401ZM62.8752 26.7722C62.9406 26.316 62.9732 26.0228 62.9732 25.8925C62.9732 24.8498 62.6465 24.0678 61.9929 23.5465C61.3393 22.9926 60.4897 22.7156 59.444 22.7156C58.2348 22.7156 57.1891 23.0578 56.3068 23.742C55.4245 24.4262 54.7709 25.4363 54.3463 26.7722H62.8752ZM93.4237 33.8589L101.855 15.4823H112.099L97.7863 42.9007H85.8259L81.2182 15.4823H91.463L93.4237 33.8589ZM132.708 15.1401C136.302 15.1401 139.145 16.1013 141.237 18.0237C143.361 19.9461 144.423 22.569 144.423 25.8925C144.423 27.0003 144.341 27.9777 144.178 28.8249C143.982 29.8676 143.786 30.617 143.59 31.0731H125.404C125.371 31.2686 125.355 31.5619 125.355 31.9529C125.355 33.191 125.649 34.1033 126.237 34.6898C126.858 35.2763 127.675 35.5695 128.688 35.5695C130.289 35.5695 131.564 34.8527 132.512 33.4191H142.707C141.956 35.3089 140.828 37.0032 139.325 38.502C137.855 39.9682 136.106 41.1249 134.08 41.9721C132.087 42.8192 129.963 43.2428 127.708 43.2428C124.113 43.2428 121.254 42.2653 119.13 40.3103C117.006 38.3554 115.944 35.6673 115.944 32.2461C115.944 31.2686 116.042 30.2423 116.238 29.167C116.761 26.2997 117.79 23.8234 119.326 21.7381C120.894 19.6203 122.822 17.9911 125.11 16.8507C127.43 15.7103 129.963 15.1401 132.708 15.1401ZM134.717 26.7722C134.783 26.316 134.815 26.0228 134.815 25.8925C134.815 24.8498 134.489 24.0678 133.835 23.5465C133.182 22.9926 132.332 22.7156 131.286 22.7156C130.077 22.7156 129.031 23.0578 128.149 23.742C127.267 24.4262 126.613 25.4363 126.188 26.7722H134.717ZM166.54 6.73378L160.119 42.9007H150.462L156.884 6.73378H166.54Z" fill="url(#paint1_linear_58_2061)"/>
<mask id="mask1_58_2061" style="mask-type:luminance" maskUnits="userSpaceOnUse" x="11" y="6" width="156" height="38">
<path d="M41.1843 8.44437L39.8118 16.0687H30.6454L25.8907 42.9007H16.2342L20.9889 16.0687H11.8716L13.2441 8.44437H41.1843ZM60.8655 15.1401C64.4601 15.1401 67.3032 16.1013 69.3946 18.0237C71.5187 19.9461 72.5807 22.569 72.5807 25.8925C72.5807 27.0003 72.4991 27.9777 72.3357 28.8249C72.1396 29.8676 71.9435 30.617 71.7474 31.0731H53.562C53.5294 31.2686 53.513 31.5619 53.513 31.9529C53.513 33.191 53.8071 34.1033 54.3953 34.6898C55.016 35.2763 55.833 35.5695 56.846 35.5695C58.4473 35.5695 59.7217 34.8527 60.6694 33.4191H70.8651C70.1135 35.3089 68.9861 37.0032 67.4829 38.502C66.0124 39.9682 64.264 41.1249 62.238 41.9721C60.2446 42.8192 58.1205 43.2428 55.8657 43.2428C52.2712 43.2428 49.4119 42.2653 47.2877 40.3103C45.1636 38.3554 44.1016 35.6673 44.1016 32.2461C44.1016 31.2686 44.1996 30.2423 44.3957 29.167C44.9185 26.2997 45.9479 23.8234 47.4838 21.7381C49.0524 19.6203 50.9804 17.9911 53.2679 16.8507C55.5879 15.7103 58.1205 15.1401 60.8655 15.1401ZM62.8752 26.7722C62.9406 26.316 62.9732 26.0228 62.9732 25.8925C62.9732 24.8498 62.6465 24.0678 61.9929 23.5465C61.3393 22.9926 60.4897 22.7156 59.444 22.7156C58.2348 22.7156 57.1891 23.0578 56.3068 23.742C55.4245 24.4262 54.7709 25.4363 54.3463 26.7722H62.8752ZM93.4237 33.8589L101.855 15.4823H112.099L97.7863 42.9007H85.8259L81.2182 15.4823H91.463L93.4237 33.8589ZM132.708 15.1401C136.302 15.1401 139.145 16.1013 141.237 18.0237C143.361 19.9461 144.423 22.569 144.423 25.8925C144.423 27.0003 144.341 27.9777 144.178 28.8249C143.982 29.8676 143.786 30.617 143.59 31.0731H125.404C125.371 31.2686 125.355 31.5619 125.355 31.9529C125.355 33.191 125.649 34.1033 126.237 34.6898C126.858 35.2763 127.675 35.5695 128.688 35.5695C130.289 35.5695 131.564 34.8527 132.512 33.4191H142.707C141.956 35.3089 140.828 37.0032 139.325 38.502C137.855 39.9682 136.106 41.1249 134.08 41.9721C132.087 42.8192 129.963 43.2428 127.708 43.2428C124.113 43.2428 121.254 42.2653 119.13 40.3103C117.006 38.3554 115.944 35.6673 115.944 32.2461C115.944 31.2686 116.042 30.2423 116.238 29.167C116.761 26.2997 117.79 23.8234 119.326 21.7381C120.894 19.6203 122.822 17.9911 125.11 16.8507C127.43 15.7103 129.963 15.1401 132.708 15.1401ZM134.717 26.7722C134.783 26.316 134.815 26.0228 134.815 25.8925C134.815 24.8498 134.489 24.0678 133.835 23.5465C133.182 22.9926 132.332 22.7156 131.286 22.7156C130.077 22.7156 129.031 23.0578 128.149 23.742C127.267 24.4262 126.613 25.4363 126.188 26.7722H134.717ZM166.54 6.73378L160.119 42.9007H150.462L156.884 6.73378H166.54Z" fill="white"/>
</mask>
<g mask="url(#mask1_58_2061)">
<path d="M41.1843 8.44437L42.2564 8.63623L42.4864 7.35828H41.1843V8.44437ZM39.8118 16.0687V17.1548H40.7229L40.8839 16.2606L39.8118 16.0687ZM30.6454 16.0687V14.9826H29.7317L29.5727 15.8798L30.6454 16.0687ZM25.8907 42.9007V43.9868H26.8044L26.9633 43.0896L25.8907 42.9007ZM16.2342 42.9007L15.1615 42.7117L14.9355 43.9868H16.2342V42.9007ZM20.9889 16.0687L22.0615 16.2577L22.2875 14.9826H20.9889V16.0687ZM11.8716 16.0687L10.7994 15.8769L10.5693 17.1548H11.8716V16.0687ZM13.2441 8.44437V7.35828H12.3329L12.1719 8.25251L13.2441 8.44437ZM41.1843 8.44437L40.1121 8.25251L38.7396 15.8769L39.8118 16.0687L40.8839 16.2606L42.2564 8.63623L41.1843 8.44437ZM39.8118 16.0687V14.9826H30.6454V16.0687V17.1548H39.8118V16.0687ZM30.6454 16.0687L29.5727 15.8798L24.818 42.7117L25.8907 42.9007L26.9633 43.0896L31.718 16.2577L30.6454 16.0687ZM25.8907 42.9007V41.8146H16.2342V42.9007V43.9868H25.8907V42.9007ZM16.2342 42.9007L17.3068 43.0896L22.0615 16.2577L20.9889 16.0687L19.9162 15.8798L15.1615 42.7117L16.2342 42.9007ZM20.9889 16.0687V14.9826H11.8716V16.0687V17.1548H20.9889V16.0687ZM11.8716 16.0687L12.9437 16.2606L14.3162 8.63623L13.2441 8.44437L12.1719 8.25251L10.7994 15.8769L11.8716 16.0687ZM13.2441 8.44437V9.53046H41.1843V8.44437V7.35828H13.2441V8.44437ZM69.3946 18.0237L68.6566 18.8223L68.6593 18.8251L68.6626 18.8279L69.3946 18.0237ZM72.3357 28.8249L71.266 28.6198L71.2654 28.6247L72.3357 28.8249ZM71.7474 31.0731V32.1592H72.4658L72.749 31.5009L71.7474 31.0731ZM53.562 31.0731V29.987H52.6392L52.4876 30.8946L53.562 31.0731ZM54.3953 34.6898L53.625 35.4578L53.6355 35.4681L53.6462 35.4783L54.3953 34.6898ZM60.6694 33.4191V32.333H60.0828L59.7598 32.8214L60.6694 33.4191ZM70.8651 33.4191L71.8782 33.8195L72.4691 32.333H70.8651V33.4191ZM62.238 41.9721L61.817 40.9705L61.811 40.973L62.238 41.9721ZM47.4838 21.7381L46.6075 21.093L46.6059 21.0953L47.4838 21.7381ZM53.2679 16.8507L52.7862 15.8766L52.7807 15.8793L53.2679 16.8507ZM62.8752 26.7722V27.8583H63.8202L63.9536 26.9258L62.8752 26.7722ZM61.9929 23.5465L61.2876 24.374L61.3001 24.3845L61.3126 24.3946L61.9929 23.5465ZM54.3463 26.7722L53.308 26.4439L52.8582 27.8583H54.3463V26.7722ZM60.8655 15.1401V16.2262C64.2619 16.2262 66.8151 17.1299 68.6566 18.8223L69.3946 18.0237L70.1331 17.2252C67.7917 15.0728 64.6589 14.054 60.8655 14.054V15.1401ZM69.3946 18.0237L68.6626 18.8279C70.522 20.5105 71.4915 22.8208 71.4915 25.8924H72.5807H73.67C73.67 22.3172 72.5159 19.3817 70.1271 17.2195L69.3946 18.0237ZM72.5807 25.8924H71.4915C71.4915 26.9498 71.4136 27.8561 71.266 28.6198L72.3357 28.8249L73.4053 29.03C73.5851 28.0994 73.67 27.0508 73.67 25.8924H72.5807ZM72.3357 28.8249L71.2654 28.6247C71.071 29.6567 70.8923 30.306 70.7464 30.6453L71.7474 31.0731L72.749 31.5009C72.9952 30.9279 73.2082 30.0784 73.4064 29.0251L72.3357 28.8249ZM71.7474 31.0731V29.987H53.562V31.0731V32.1592H71.7474V31.0731ZM53.562 31.0731L52.4876 30.8946C52.4396 31.1815 52.4237 31.5478 52.4237 31.9528H53.513H54.6021C54.6021 31.5759 54.619 31.3557 54.6364 31.2517L53.562 31.0731ZM53.513 31.9528H52.4237C52.4237 33.3385 52.7508 34.5861 53.625 35.4578L54.3953 34.6898L55.1658 33.9218C54.8635 33.6205 54.6021 33.0435 54.6021 31.9528H53.513ZM54.3953 34.6898L53.6462 35.4783C54.5057 36.2904 55.6091 36.6556 56.846 36.6556V35.5695V34.4834C56.0568 34.4834 55.5263 34.2622 55.1445 33.9014L54.3953 34.6898ZM56.846 35.5695V36.6556C58.8454 36.6556 60.4477 35.7279 61.579 34.0167L60.6694 33.4191L59.7598 32.8214C58.9957 33.9775 58.0497 34.4834 56.846 34.4834V35.5695ZM60.6694 33.4191V34.5052H70.8651V33.4191V32.333H60.6694V33.4191ZM70.8651 33.4191L69.8526 33.0187C69.1582 34.7649 68.1158 36.3354 66.7128 37.734L67.4829 38.502L68.2536 39.27C69.857 37.671 71.0694 35.8528 71.8782 33.8195L70.8651 33.4191ZM67.4829 38.502L66.7128 37.734C65.3479 39.0949 63.7199 40.1747 61.817 40.9705L62.238 41.9721L62.6595 42.9736C64.8087 42.0751 66.6774 40.8415 68.2536 39.27L67.4829 38.502ZM62.238 41.9721L61.811 40.973C59.9581 41.7604 57.98 42.1567 55.8656 42.1567V43.2428V44.3289C58.2615 44.3289 60.5316 43.878 62.6655 42.9711L62.238 41.9721ZM55.8656 43.2428V42.1567C52.4754 42.1567 49.9035 41.2398 48.0266 39.5123L47.2877 40.3103L46.5489 41.1084C48.9201 43.2908 52.0671 44.3289 55.8656 44.3289V43.2428ZM47.2877 40.3103L48.0266 39.5123C46.1676 37.8013 45.1909 35.4258 45.1909 32.2461H44.1016H43.0123C43.0123 35.9087 44.1596 38.9094 46.5489 41.1084L47.2877 40.3103ZM44.1016 32.2461H45.1909C45.1909 31.3409 45.2817 30.3798 45.4674 29.3613L44.3957 29.167L43.3239 28.9727C43.1175 30.1047 43.0123 31.1963 43.0123 32.2461H44.1016ZM44.3957 29.167L45.4674 29.3613C45.9644 26.6356 46.9355 24.3175 48.3618 22.381L47.4838 21.7381L46.6059 21.0953C44.9603 23.3294 43.8726 25.9639 43.3239 28.9727L44.3957 29.167ZM47.4838 21.7381L48.36 22.3833C49.83 20.3987 51.6263 18.8834 53.755 17.8221L53.2679 16.8507L52.7807 15.8793C50.3345 17.0988 48.2747 18.8419 46.6075 21.093L47.4838 21.7381ZM53.2679 16.8507L53.7495 17.8249C55.9109 16.7626 58.2773 16.2262 60.8655 16.2262V15.1401V14.054C57.9642 14.054 55.2654 14.6581 52.7862 15.8766L53.2679 16.8507ZM62.8752 26.7722L63.9536 26.9258C64.0157 26.4918 64.0625 26.1157 64.0625 25.8924H62.9732H61.884C61.884 25.8855 61.8845 25.8973 61.8812 25.9375C61.8785 25.9745 61.8736 26.0248 61.8665 26.0902C61.8518 26.2212 61.8289 26.3962 61.7968 26.6186L62.8752 26.7722ZM62.9732 25.8924H64.0625C64.0625 24.6101 63.6486 23.4763 62.6737 22.6984L61.9929 23.5465L61.3126 24.3946C61.6443 24.6594 61.884 25.0895 61.884 25.8924H62.9732ZM61.9929 23.5465L62.6987 22.7189C61.8072 21.9637 60.6896 21.6295 59.444 21.6295V22.7156V23.8017C60.2903 23.8017 60.8715 24.0215 61.2876 24.374L61.9929 23.5465ZM59.444 22.7156V21.6295C58.0137 21.6295 56.7278 22.0398 55.638 22.8847L56.3068 23.742L56.9756 24.5993C57.651 24.0757 58.456 23.8017 59.444 23.8017V22.7156ZM56.3068 23.742L55.638 22.8847C54.5416 23.735 53.7822 24.9525 53.308 26.4439L54.3463 26.7722L55.3847 27.1005C55.76 25.92 56.3074 25.1175 56.9756 24.5993L56.3068 23.742ZM54.3463 26.7722V27.8583H62.8752V26.7722V25.6861H54.3463V26.7722ZM93.4237 33.8589L92.3409 33.9738L92.7614 37.9144L94.4144 34.3108L93.4237 33.8589ZM101.855 15.4823V14.3962H101.155L100.865 15.0304L101.855 15.4823ZM112.099 15.4823L113.066 15.9837L113.895 14.3962H112.099V15.4823ZM97.7863 42.9007V43.9868H98.4475L98.7525 43.4021L97.7863 42.9007ZM85.8259 42.9007L84.7519 43.0801L84.9044 43.9868H85.8259V42.9007ZM81.2182 15.4823V14.3962H79.9312L80.1442 15.6617L81.2182 15.4823ZM91.463 15.4823L92.5463 15.3673L92.4428 14.3962H91.463V15.4823ZM93.4237 33.8589L94.4144 34.3108L102.845 15.9341L101.855 15.4823L100.865 15.0304L92.4335 33.4071L93.4237 33.8589ZM101.855 15.4823V16.5683H112.099V15.4823V14.3962H101.855V15.4823ZM112.099 15.4823L111.133 14.9808L96.8201 42.3992L97.7863 42.9007L98.7525 43.4021L113.066 15.9837L112.099 15.4823ZM97.7863 42.9007V41.8146H85.8259V42.9007V43.9868H97.7863V42.9007ZM85.8259 42.9007L86.9005 42.7212L82.2928 15.3028L81.2182 15.4823L80.1442 15.6617L84.7519 43.0801L85.8259 42.9007ZM81.2182 15.4823V16.5683H91.463V15.4823V14.3962H81.2182V15.4823ZM91.463 15.4823L90.3802 15.5972L92.3409 33.9738L93.4237 33.8589L94.507 33.744L92.5463 15.3673L91.463 15.4823ZM141.237 18.0237L140.498 18.8223L140.502 18.8251L140.504 18.8279L141.237 18.0237ZM144.178 28.8249L143.108 28.6198L143.107 28.6247L144.178 28.8249ZM143.59 31.0731V32.1592H144.307L144.591 31.5009L143.59 31.0731ZM125.404 31.0731V29.987H124.481L124.329 30.8946L125.404 31.0731ZM126.237 34.6898L125.467 35.4578L125.478 35.4681L125.488 35.4783L126.237 34.6898ZM132.512 33.4191V32.333H131.924L131.602 32.8214L132.512 33.4191ZM142.707 33.4191L143.72 33.8195L144.311 32.333H142.707V33.4191ZM134.08 41.9721L133.659 40.9705L133.653 40.973L134.08 41.9721ZM119.326 21.7381L118.449 21.093L118.448 21.0953L119.326 21.7381ZM125.11 16.8507L124.628 15.8766L124.622 15.8793L125.11 16.8507ZM134.717 26.7722V27.8583H135.662L135.796 26.9258L134.717 26.7722ZM133.835 23.5465L133.129 24.374L133.142 24.3845L133.154 24.3946L133.835 23.5465ZM126.188 26.7722L125.15 26.4439L124.7 27.8583H126.188V26.7722ZM132.708 15.1401V16.2262C136.104 16.2262 138.657 17.1299 140.498 18.8223L141.237 18.0237L141.975 17.2252C139.633 15.0728 136.501 14.054 132.708 14.054V15.1401ZM141.237 18.0237L140.504 18.8279C142.364 20.5105 143.334 22.8208 143.334 25.8924H144.423H145.512C145.512 22.3172 144.358 19.3817 141.969 17.2195L141.237 18.0237ZM144.423 25.8924H143.334C143.334 26.9498 143.255 27.8561 143.108 28.6198L144.178 28.8249L145.248 29.03C145.427 28.0994 145.512 27.0508 145.512 25.8924H144.423ZM144.178 28.8249L143.107 28.6247C142.913 29.6567 142.734 30.306 142.588 30.6453L143.59 31.0731L144.591 31.5009C144.837 30.9279 145.05 30.0784 145.248 29.0251L144.178 28.8249ZM143.59 31.0731V29.987H125.404V31.0731V32.1592H143.59V31.0731ZM125.404 31.0731L124.329 30.8946C124.282 31.1815 124.266 31.5478 124.266 31.9528H125.355H126.444C126.444 31.5759 126.461 31.3557 126.478 31.2517L125.404 31.0731ZM125.355 31.9528H124.266C124.266 33.3385 124.592 34.5861 125.467 35.4578L126.237 34.6898L127.007 33.9218C126.705 33.6205 126.444 33.0435 126.444 31.9528H125.355ZM126.237 34.6898L125.488 35.4783C126.348 36.2904 127.451 36.6556 128.688 36.6556V35.5695V34.4834C127.899 34.4834 127.368 34.2622 126.986 33.9014L126.237 34.6898ZM128.688 35.5695V36.6556C130.687 36.6556 132.29 35.7279 133.421 34.0167L132.512 33.4191L131.602 32.8214C130.838 33.9775 129.891 34.4834 128.688 34.4834V35.5695ZM132.512 33.4191V34.5052H142.707V33.4191V32.333H132.512V33.4191ZM142.707 33.4191L141.694 33.0187C141 34.7649 139.957 36.3354 138.554 37.734L139.325 38.502L140.095 39.27C141.699 37.671 142.911 35.8528 143.72 33.8195L142.707 33.4191ZM139.325 38.502L138.554 37.734C137.19 39.0949 135.562 40.1747 133.659 40.9705L134.08 41.9721L134.501 42.9736C136.65 42.0751 138.519 40.8415 140.095 39.27L139.325 38.502ZM134.08 41.9721L133.653 40.973C131.8 41.7604 129.822 42.1567 127.708 42.1567V43.2428V44.3289C130.103 44.3289 132.373 43.878 134.507 42.9711L134.08 41.9721ZM127.708 43.2428V42.1567C124.317 42.1567 121.745 41.2398 119.868 39.5123L119.13 40.3103L118.391 41.1084C120.762 43.2908 123.909 44.3289 127.708 44.3289V43.2428ZM119.13 40.3103L119.868 39.5123C118.009 37.8013 117.033 35.4258 117.033 32.2461H115.944H114.854C114.854 35.9087 116.001 38.9094 118.391 41.1084L119.13 40.3103ZM115.944 32.2461H117.033C117.033 31.3409 117.123 30.3798 117.309 29.3613L116.238 29.167L115.166 28.9727C114.959 30.1047 114.854 31.1963 114.854 32.2461H115.944ZM116.238 29.167L117.309 29.3613C117.806 26.6356 118.777 24.3175 120.204 22.381L119.326 21.7381L118.448 21.0953C116.802 23.3294 115.714 25.9639 115.166 28.9727L116.238 29.167ZM119.326 21.7381L120.202 22.3833C121.672 20.3987 123.468 18.8834 125.597 17.8221L125.11 16.8507L124.622 15.8793C122.176 17.0988 120.117 18.8419 118.449 21.093L119.326 21.7381ZM125.11 16.8507L125.591 17.8249C127.753 16.7626 130.119 16.2262 132.708 16.2262V15.1401V14.054C129.806 14.054 127.107 14.6581 124.628 15.8766L125.11 16.8507ZM134.717 26.7722L135.796 26.9258C135.858 26.4918 135.905 26.1157 135.905 25.8924H134.815H133.726C133.726 25.8855 133.726 25.8973 133.723 25.9375C133.72 25.9745 133.715 26.0248 133.708 26.0902C133.693 26.2212 133.671 26.3962 133.639 26.6186L134.717 26.7722ZM134.815 25.8924H135.905C135.905 24.6101 135.491 23.4763 134.515 22.6984L133.835 23.5465L133.154 24.3946C133.487 24.6594 133.726 25.0895 133.726 25.8924H134.815ZM133.835 23.5465L134.54 22.7189C133.649 21.9637 132.531 21.6295 131.286 21.6295V22.7156V23.8017C132.132 23.8017 132.714 24.0215 133.129 24.374L133.835 23.5465ZM131.286 22.7156V21.6295C129.856 21.6295 128.569 22.0398 127.48 22.8847L128.149 23.742L128.817 24.5993C129.493 24.0757 130.298 23.8017 131.286 23.8017V22.7156ZM128.149 23.742L127.48 22.8847C126.384 23.735 125.624 24.9525 125.15 26.4439L126.188 26.7722L127.226 27.1005C127.602 25.92 128.15 25.1175 128.817 24.5993L128.149 23.742ZM126.188 26.7722V27.8583H134.717V26.7722V25.6861H126.188V26.7722ZM166.54 6.73377L167.613 6.92308L167.839 5.64768H166.54V6.73377ZM160.119 42.9007V43.9868H161.032L161.191 43.09L160.119 42.9007ZM150.462 42.9007L149.39 42.7114L149.163 43.9868H150.462V42.9007ZM156.884 6.73377V5.64768H155.97L155.811 6.54447L156.884 6.73377ZM166.54 6.73377L165.467 6.54447L159.046 42.7114L160.119 42.9007L161.191 43.09L167.613 6.92308L166.54 6.73377ZM160.119 42.9007V41.8146H150.462V42.9007V43.9868H160.119V42.9007ZM150.462 42.9007L151.535 43.09L157.956 6.92308L156.884 6.73377L155.811 6.54447L149.39 42.7114L150.462 42.9007ZM156.884 6.73377V7.81987H166.54V6.73377V5.64768H156.884V6.73377Z" fill="#B2B2B2"/>
</g>
<g filter="url(#filter1_d_58_2061)">
<path d="M144.004 73.0783H137.298L129.103 56.1483L126.083 73.0783H119.377L124.24 45.6307H130.946L139.141 62.6388L142.161 45.6307H148.867L144.004 73.0783ZM159.491 50.9091L158.511 56.6175H167.491L166.589 61.6613H157.609L156.511 67.7999H166.668L165.727 73.0783H148.864L153.727 45.6307H170.589L169.648 50.9091H159.491ZM212.823 45.6307L200.785 73.0783H192.667L191.452 55.0535L183.726 73.0783H175.609L173.492 45.6307H180.668L181.099 65.6103L189.53 45.6307H196.942L198.118 65.493L205.608 45.6307H212.823ZM222.265 73.352C219.285 73.352 216.853 72.7134 214.971 71.4361C213.115 70.1328 212.187 68.2951 212.187 65.9231C212.187 65.6885 212.213 65.3366 212.265 64.8674H219.245C219.167 65.8579 219.402 66.6399 219.951 67.2134C220.5 67.7868 221.337 68.0736 222.461 68.0736C223.48 68.0736 224.278 67.852 224.853 67.4089C225.454 66.9658 225.755 66.3402 225.755 65.5321C225.755 64.698 225.376 64.0203 224.618 63.499C223.886 62.9776 222.735 62.3911 221.167 61.7395C219.651 61.1139 218.409 60.5274 217.441 59.98C216.5 59.4066 215.677 58.6376 214.971 57.6732C214.265 56.7087 213.912 55.4966 213.912 54.0371C213.886 52.2385 214.33 50.6745 215.245 49.3452C216.16 48.0158 217.428 46.9992 219.049 46.2954C220.67 45.5916 222.526 45.2397 224.618 45.2397C226.5 45.2397 228.173 45.5395 229.637 46.139C231.101 46.7125 232.238 47.5596 233.049 48.6805C233.859 49.7752 234.264 51.0786 234.264 52.5904C234.264 52.9814 234.251 53.2681 234.225 53.4506H227.088C227.114 53.3463 227.127 53.1899 227.127 52.9814C227.127 52.2515 226.866 51.6651 226.343 51.2219C225.846 50.7527 225.154 50.5181 224.265 50.5181C223.324 50.5181 222.552 50.7527 221.951 51.2219C221.376 51.6651 221.088 52.2776 221.088 53.0596C221.088 53.8416 221.454 54.5061 222.186 55.0535C222.918 55.5748 224.056 56.1874 225.598 56.8912C227.14 57.595 228.395 58.2466 229.363 58.8461C230.356 59.4457 231.206 60.2537 231.912 61.2703C232.617 62.2608 232.97 63.4859 232.97 64.9456C232.97 66.5617 232.539 68.0084 231.676 69.2857C230.814 70.5629 229.572 71.5664 227.951 72.2963C226.33 73.0001 224.435 73.352 222.265 73.352Z" fill="white"/>
<mask id="mask2_58_2061" style="mask-type:luminance" maskUnits="userSpaceOnUse" x="119" y="45" width="116" height="29">
<path d="M144.004 73.0783H137.298L129.103 56.1483L126.083 73.0783H119.377L124.24 45.6307H130.946L139.141 62.6388L142.161 45.6307H148.867L144.004 73.0783ZM159.491 50.9091L158.511 56.6175H167.491L166.589 61.6613H157.609L156.511 67.7999H166.668L165.727 73.0783H148.864L153.727 45.6307H170.589L169.648 50.9091H159.491ZM212.823 45.6307L200.785 73.0783H192.667L191.452 55.0535L183.726 73.0783H175.609L173.492 45.6307H180.668L181.099 65.6103L189.53 45.6307H196.942L198.118 65.493L205.608 45.6307H212.823ZM222.265 73.352C219.285 73.352 216.853 72.7134 214.971 71.4361C213.115 70.1328 212.187 68.2951 212.187 65.9231C212.187 65.6885 212.213 65.3366 212.265 64.8674H219.245C219.167 65.8579 219.402 66.6399 219.951 67.2134C220.5 67.7868 221.337 68.0736 222.461 68.0736C223.48 68.0736 224.278 67.852 224.853 67.4089C225.454 66.9658 225.755 66.3402 225.755 65.5321C225.755 64.698 225.376 64.0203 224.618 63.499C223.886 62.9776 222.735 62.3911 221.167 61.7395C219.651 61.1139 218.409 60.5274 217.441 59.98C216.5 59.4066 215.677 58.6376 214.971 57.6732C214.265 56.7087 213.912 55.4966 213.912 54.0371C213.886 52.2385 214.33 50.6745 215.245 49.3452C216.16 48.0158 217.428 46.9992 219.049 46.2954C220.67 45.5916 222.526 45.2397 224.618 45.2397C226.5 45.2397 228.173 45.5395 229.637 46.139C231.101 46.7125 232.238 47.5596 233.049 48.6805C233.859 49.7752 234.264 51.0786 234.264 52.5904C234.264 52.9814 234.251 53.2681 234.225 53.4506H227.088C227.114 53.3463 227.127 53.1899 227.127 52.9814C227.127 52.2515 226.866 51.6651 226.343 51.2219C225.846 50.7527 225.154 50.5181 224.265 50.5181C223.324 50.5181 222.552 50.7527 221.951 51.2219C221.376 51.6651 221.088 52.2776 221.088 53.0596C221.088 53.8416 221.454 54.5061 222.186 55.0535C222.918 55.5748 224.056 56.1874 225.598 56.8912C227.14 57.595 228.395 58.2466 229.363 58.8461C230.356 59.4457 231.206 60.2537 231.912 61.2703C232.617 62.2608 232.97 63.4859 232.97 64.9456C232.97 66.5617 232.539 68.0084 231.676 69.2857C230.814 70.5629 229.572 71.5664 227.951 72.2963C226.33 73.0001 224.435 73.352 222.265 73.352Z" fill="white"/>
</mask>
<g mask="url(#mask2_58_2061)">
<path d="M144.004 73.0783V74.1644H144.918L145.077 73.2673L144.004 73.0783ZM137.299 73.0783L136.317 73.5507L136.614 74.1644H137.299V73.0783ZM129.103 56.1483L130.084 55.6764L128.62 52.6525L128.03 55.9582L129.103 56.1483ZM126.083 73.0783V74.1644H126.996L127.156 73.2684L126.083 73.0783ZM119.378 73.0783L118.305 72.8893L118.079 74.1644H119.378V73.0783ZM124.24 45.6307V44.5446H123.326L123.167 45.4418L124.24 45.6307ZM130.946 45.6307L131.927 45.1604L131.631 44.5446H130.946V45.6307ZM139.142 62.6388L138.16 63.109L139.624 66.149L140.214 62.8283L139.142 62.6388ZM142.161 45.6307V44.5446H141.248L141.088 45.4414L142.161 45.6307ZM148.867 45.6307L149.939 45.8196L150.165 44.5446H148.867V45.6307ZM144.004 73.0783V71.9922H137.299V73.0783V74.1644H144.004V73.0783ZM137.299 73.0783L138.279 72.6064L130.084 55.6764L129.103 56.1483L128.121 56.6207L136.317 73.5507L137.299 73.0783ZM129.103 56.1483L128.03 55.9582L125.01 72.8882L126.083 73.0783L127.156 73.2684L130.175 56.3383L129.103 56.1483ZM126.083 73.0783V71.9922H119.378V73.0783V74.1644H126.083V73.0783ZM119.378 73.0783L120.45 73.2673L125.313 45.8196L124.24 45.6307L123.167 45.4418L118.305 72.8893L119.378 73.0783ZM124.24 45.6307V46.7168H130.946V45.6307V44.5446H124.24V45.6307ZM130.946 45.6307L129.964 46.1011L138.16 63.109L139.142 62.6388L140.123 62.1685L131.927 45.1604L130.946 45.6307ZM139.142 62.6388L140.214 62.8283L143.233 45.82L142.161 45.6307L141.088 45.4414L138.069 62.4498L139.142 62.6388ZM142.161 45.6307V46.7168H148.867V45.6307V44.5446H142.161V45.6307ZM148.867 45.6307L147.794 45.4418L142.931 72.8893L144.004 73.0783L145.077 73.2673L149.939 45.8196L148.867 45.6307ZM159.492 50.9091V49.823H158.573L158.418 50.7258L159.492 50.9091ZM158.511 56.6175L157.438 56.4345L157.22 57.7036H158.511V56.6175ZM167.491 56.6175L168.564 56.8081L168.792 55.5314H167.491V56.6175ZM166.589 61.6613V62.7474H167.502L167.662 61.8519L166.589 61.6613ZM157.609 61.6613V60.5752H156.697L156.537 61.4707L157.609 61.6613ZM156.511 67.7999L155.439 67.6093L155.211 68.886H156.511V67.7999ZM166.668 67.7999L167.74 67.9899L167.968 66.7138H166.668V67.7999ZM165.727 73.0783V74.1644H166.64L166.799 73.2684L165.727 73.0783ZM148.865 73.0783L147.792 72.8893L147.566 74.1644H148.865V73.0783ZM153.727 45.6307V44.5446H152.814L152.655 45.4418L153.727 45.6307ZM170.589 45.6307L171.662 45.8208L171.889 44.5446H170.589V45.6307ZM169.648 50.9091V51.9952H170.561L170.721 51.0992L169.648 50.9091ZM159.492 50.9091L158.418 50.7258L157.438 56.4345L158.511 56.6175L159.585 56.801L160.566 51.0924L159.492 50.9091ZM158.511 56.6175V57.7036H167.491V56.6175V55.5314H158.511V56.6175ZM167.491 56.6175L166.419 56.4269L165.517 61.4707L166.589 61.6613L167.662 61.8519L168.564 56.8081L167.491 56.6175ZM166.589 61.6613V60.5752H157.609V61.6613V62.7474H166.589V61.6613ZM157.609 61.6613L156.537 61.4707L155.439 67.6093L156.511 67.7999L157.584 67.9905L158.682 61.8519L157.609 61.6613ZM156.511 67.7999V68.886H166.668V67.7999V66.7138H156.511V67.7999ZM166.668 67.7999L165.595 67.6098L164.654 72.8882L165.727 73.0783L166.799 73.2684L167.74 67.9899L166.668 67.7999ZM165.727 73.0783V71.9922H148.865V73.0783V74.1644H165.727V73.0783ZM148.865 73.0783L149.938 73.2673L154.8 45.8196L153.727 45.6307L152.655 45.4418L147.792 72.8893L148.865 73.0783ZM153.727 45.6307V46.7168H170.589V45.6307V44.5446H153.727V45.6307ZM170.589 45.6307L169.517 45.4406L168.576 50.719L169.648 50.9091L170.721 51.0992L171.662 45.8208L170.589 45.6307ZM169.648 50.9091V49.823H159.492V50.9091V51.9952H169.648V50.9091ZM212.824 45.6307L213.822 46.0659L214.489 44.5446H212.824V45.6307ZM200.785 73.0783V74.1644H201.498L201.783 73.5138L200.785 73.0783ZM192.667 73.0783L191.581 73.1511L191.649 74.1644H192.667V73.0783ZM191.452 55.0535L192.539 54.9807L190.45 54.6267L191.452 55.0535ZM183.727 73.0783V74.1644H184.446L184.728 73.5051L183.727 73.0783ZM175.609 73.0783L174.523 73.1619L174.601 74.1644H175.609V73.0783ZM173.492 45.6307V44.5446H172.316L172.406 45.714L173.492 45.6307ZM180.668 45.6307L181.757 45.6073L181.734 44.5446H180.668V45.6307ZM181.099 65.6103L180.01 65.6337L182.104 66.0317L181.099 65.6103ZM189.53 45.6307V44.5446H188.807L188.527 45.2095L189.53 45.6307ZM196.942 45.6307L198.029 45.5667L197.969 44.5446H196.942V45.6307ZM198.118 65.493L197.031 65.5571L199.138 65.8753L198.118 65.493ZM205.608 45.6307V44.5446H204.854L204.589 45.2485L205.608 45.6307ZM212.824 45.6307L211.826 45.1955L199.787 72.6433L200.785 73.0783L201.783 73.5138L213.822 46.0659L212.824 45.6307ZM200.785 73.0783V71.9922H192.667V73.0783V74.1644H200.785V73.0783ZM192.667 73.0783L193.755 73.0055L192.539 54.9807L191.452 55.0535L190.365 55.1263L191.581 73.1511L192.667 73.0783ZM191.452 55.0535L190.45 54.6267L182.725 72.6515L183.727 73.0783L184.728 73.5051L192.453 55.4803L191.452 55.0535ZM183.727 73.0783V71.9922H175.609V73.0783V74.1644H183.727V73.0783ZM175.609 73.0783L176.695 72.9952L174.578 45.5474L173.492 45.6307L172.406 45.714L174.523 73.1619L175.609 73.0783ZM173.492 45.6307V46.7168H180.668V45.6307V44.5446H173.492V45.6307ZM180.668 45.6307L179.579 45.6541L180.01 65.6337L181.099 65.6103L182.189 65.587L181.757 45.6073L180.668 45.6307ZM181.099 65.6103L182.104 66.0317L190.535 46.0519L189.53 45.6307L188.527 45.2095L180.095 65.1895L181.099 65.6103ZM189.53 45.6307V46.7168H196.942V45.6307V44.5446H189.53V45.6307ZM196.942 45.6307L195.855 45.6947L197.031 65.5571L198.118 65.493L199.206 65.4289L198.029 45.5667L196.942 45.6307ZM198.118 65.493L199.138 65.8753L206.628 46.0129L205.608 45.6307L204.589 45.2485L197.099 65.1107L198.118 65.493ZM205.608 45.6307V46.7168H212.824V45.6307V44.5446H205.608V45.6307ZM214.971 71.4361L214.344 72.3245L214.351 72.3294L214.358 72.3343L214.971 71.4361ZM212.265 64.8674V63.7813H211.29L211.183 64.7474L212.265 64.8674ZM219.245 64.8674L220.331 64.9532L220.424 63.7813H219.245V64.8674ZM224.853 67.4089L224.206 66.5357L224.196 66.5427L224.187 66.5498L224.853 67.4089ZM224.618 63.499L223.984 64.383L223.992 64.3879L223.999 64.3934L224.618 63.499ZM221.167 61.7395L221.586 60.737L221.584 60.7359L221.167 61.7395ZM217.442 59.98L216.874 60.907L216.889 60.9162L216.904 60.9249L217.442 59.98ZM213.912 54.0371H215.002V54.0292V54.0213L213.912 54.0371ZM229.637 46.139L229.223 47.1436L229.231 47.1468L229.239 47.1499L229.637 46.139ZM233.049 48.6805L232.165 49.3156L232.169 49.3206L232.173 49.3254L233.049 48.6805ZM234.225 53.4506V54.5365H235.17L235.304 53.6042L234.225 53.4506ZM227.088 53.4506L226.032 53.1872L225.693 54.5365H227.088V53.4506ZM226.343 51.2219L225.594 52.0104L225.616 52.0305L225.638 52.0495L226.343 51.2219ZM221.951 51.2219L222.617 52.0813L222.623 52.0772L221.951 51.2219ZM222.187 55.0535L221.533 55.9224L221.543 55.93L221.553 55.9376L222.187 55.0535ZM229.363 58.8461L228.788 59.7688L228.793 59.772L228.799 59.7753L229.363 58.8461ZM231.912 61.2703L231.016 61.8888L231.02 61.8943L231.024 61.8997L231.912 61.2703ZM227.951 72.2963L228.386 73.2922L228.393 73.2895L228.399 73.2863L227.951 72.2963ZM222.265 73.352V72.2659C219.437 72.2659 217.237 71.6604 215.584 70.5385L214.971 71.4361L214.358 72.3343C216.469 73.7669 219.133 74.4381 222.265 74.4381V73.352ZM214.971 71.4361L215.598 70.5482C214.048 69.4594 213.276 67.9622 213.276 65.9231H212.187H211.098C211.098 68.6286 212.182 70.8062 214.344 72.3245L214.971 71.4361ZM212.187 65.9231H213.276C213.276 65.751 213.296 65.4485 213.348 64.9874L212.265 64.8674L211.183 64.7474C211.129 65.2253 211.098 65.6261 211.098 65.9231H212.187ZM212.265 64.8674V65.9535H219.245V64.8674V63.7813H212.265V64.8674ZM219.245 64.8674L218.159 64.7822C218.064 65.997 218.348 67.1124 219.163 67.9633L219.951 67.2134L220.739 66.4634C220.456 66.168 220.27 65.7195 220.331 64.9532L219.245 64.8674ZM219.951 67.2134L219.163 67.9633C219.991 68.8279 221.165 69.1597 222.461 69.1597V68.0736V66.9875C221.509 66.9875 221.01 66.7464 220.739 66.4634L219.951 67.2134ZM222.461 68.0736V69.1597C223.627 69.1597 224.69 68.9077 225.519 68.2685L224.853 67.4089L224.187 66.5498C223.866 66.7969 223.335 66.9875 222.461 66.9875V68.0736ZM224.853 67.4089L225.501 68.2826C226.406 67.6152 226.844 66.6513 226.844 65.5321H225.755H224.666C224.666 66.0296 224.503 66.3163 224.206 66.5357L224.853 67.4089ZM225.755 65.5321H226.844C226.844 64.301 226.254 63.3051 225.236 62.6051L224.618 63.499L223.999 64.3934C224.497 64.736 224.666 65.0955 224.666 65.5321H225.755ZM224.618 63.499L225.251 62.6154C224.417 62.0213 223.176 61.3979 221.586 60.737L221.167 61.7395L220.748 62.7419C222.295 63.3849 223.354 63.9339 223.984 64.383L224.618 63.499ZM221.167 61.7395L221.584 60.7359C220.091 60.1207 218.894 59.5532 217.979 59.0357L217.442 59.98L216.904 60.9249C217.924 61.5022 219.21 62.1077 220.75 62.743L221.167 61.7395ZM217.442 59.98L218.01 59.0536C217.2 58.5605 216.48 57.8925 215.851 57.0329L214.971 57.6732L214.091 58.3134C214.874 59.3832 215.801 60.2532 216.874 60.907L217.442 59.98ZM214.971 57.6732L215.851 57.0329C215.309 56.2927 215.002 55.319 215.002 54.0371H213.912H212.823C212.823 55.6747 213.221 57.1252 214.091 58.3134L214.971 57.6732ZM213.912 54.0371L215.002 54.0213C214.978 52.4204 215.371 51.0826 216.144 49.9597L215.246 49.3452L214.348 48.7306C213.29 50.2665 212.794 52.0566 212.823 54.0528L213.912 54.0371ZM215.246 49.3452L216.144 49.9597C216.932 48.8137 218.033 47.9216 219.484 47.2912L219.049 46.2954L218.614 45.2996C216.825 46.0768 215.389 47.2178 214.348 48.7306L215.246 49.3452ZM219.049 46.2954L219.484 47.2912C220.945 46.6569 222.649 46.3258 224.618 46.3258V45.2397V44.1536C222.404 44.1536 220.395 44.5264 218.614 45.2996L219.049 46.2954ZM224.618 45.2397V46.3258C226.385 46.3258 227.913 46.6071 229.223 47.1436L229.637 46.139L230.051 45.1343C228.434 44.4719 226.616 44.1536 224.618 44.1536V45.2397ZM229.637 46.139L229.239 47.1499C230.535 47.6577 231.493 48.3859 232.165 49.3156L233.049 48.6805L233.932 48.0453C232.984 46.7333 231.667 45.7672 230.035 45.1281L229.637 46.139ZM233.049 48.6805L232.173 49.3254C232.829 50.2128 233.175 51.2836 233.175 52.5904H234.265H235.354C235.354 50.8735 234.889 49.3377 233.925 48.0355L233.049 48.6805ZM234.265 52.5904H233.175C233.175 52.9737 233.162 53.1955 233.147 53.297L234.225 53.4506L235.304 53.6042C235.341 53.3407 235.354 52.9891 235.354 52.5904H234.265ZM234.225 53.4506V52.3645H227.088V53.4506V54.5365H234.225V53.4506ZM227.088 53.4506L228.145 53.714C228.204 53.4768 228.217 53.2121 228.217 52.9814H227.128H226.038C226.038 53.0646 226.036 53.1246 226.032 53.1649C226.028 53.2087 226.026 53.2113 226.032 53.1872L227.088 53.4506ZM227.128 52.9814H228.217C228.217 51.9571 227.833 51.059 227.049 50.3944L226.343 51.2219L225.638 52.0495C225.899 52.271 226.038 52.546 226.038 52.9814H227.128ZM226.343 51.2219L227.092 50.4335C226.338 49.7213 225.346 49.432 224.265 49.432V50.5181V51.6042C224.961 51.6042 225.355 51.7842 225.594 52.0104L226.343 51.2219ZM224.265 50.5181V49.432C223.139 49.432 222.114 49.7157 221.28 50.3666L221.951 51.2219L222.623 52.0772C222.991 51.7897 223.509 51.6042 224.265 51.6042V50.5181ZM221.951 51.2219L221.285 50.3625C220.42 51.0294 219.999 51.9719 219.999 53.0596H221.089H222.178C222.178 52.5833 222.333 52.3007 222.617 52.0813L221.951 51.2219ZM221.089 53.0596H219.999C219.999 54.2433 220.578 55.2088 221.533 55.9224L222.187 55.0535L222.84 54.1848C222.33 53.8037 222.178 53.4399 222.178 53.0596H221.089ZM222.187 55.0535L221.553 55.9376C222.371 56.5203 223.584 57.167 225.145 57.879L225.598 56.8912L226.051 55.9039C224.527 55.2083 223.465 54.6299 222.819 54.1699L222.187 55.0535ZM225.598 56.8912L225.145 57.879C226.664 58.5719 227.874 59.2018 228.788 59.7688L229.363 58.8461L229.938 57.924C228.917 57.2914 227.618 56.6186 226.051 55.9039L225.598 56.8912ZM229.363 58.8461L228.799 59.7753C229.652 60.2906 230.392 60.989 231.016 61.8888L231.912 61.2703L232.807 60.6523C232.02 59.5184 231.06 58.6012 229.926 57.917L229.363 58.8461ZM231.912 61.2703L231.024 61.8997C231.574 62.6719 231.881 63.6651 231.881 64.9456H232.97H234.06C234.06 63.3073 233.661 61.8503 232.799 60.6414L231.912 61.2703ZM232.97 64.9456H231.881C231.881 66.357 231.508 67.5903 230.773 68.6791L231.676 69.2857L232.58 69.8922C233.57 68.4266 234.06 66.767 234.06 64.9456H232.97ZM231.676 69.2857L230.773 68.6791C230.04 69.7646 228.967 70.6471 227.503 71.3069L227.951 72.2963L228.399 73.2863C230.176 72.4864 231.588 71.3612 232.58 69.8922L231.676 69.2857ZM227.951 72.2963L227.516 71.3009C226.06 71.933 224.318 72.2659 222.265 72.2659V73.352V74.4381C224.551 74.4381 226.6 74.0677 228.386 73.2922L227.951 72.2963Z" fill="black" fill-opacity="0.7"/>
</g>
</g>
<defs>
<filter id="filter0_di_58_2061" x="11.8716" y="6.73378" width="156.669" height="40.509" filterUnits="userSpaceOnUse" color-interpolation-filters="sRGB">
<feFlood flood-opacity="0" result="BackgroundImageFix"/>
<feColorMatrix in="SourceAlpha" type="matrix" values="0 0 0 0 0 0 0 0 0 0 0 0 0 0 0 0 0 0 127 0" result="hardAlpha"/>
<feOffset dx="2" dy="4"/>
<feComposite in2="hardAlpha" operator="out"/>
<feColorMatrix type="matrix" values="0 0 0 0 0 0 0 0 0 0 0 0 0 0 0 0 0 0 1 0"/>
<feBlend mode="normal" in2="BackgroundImageFix" result="effect1_dropShadow_58_2061"/>
<feBlend mode="normal" in="SourceGraphic" in2="effect1_dropShadow_58_2061" result="shape"/>
<feColorMatrix in="SourceAlpha" type="matrix" values="0 0 0 0 0 0 0 0 0 0 0 0 0 0 0 0 0 0 127 0" result="hardAlpha"/>
<feOffset dx="2" dy="3"/>
<feGaussianBlur stdDeviation="1.65"/>
<feComposite in2="hardAlpha" operator="arithmetic" k2="-1" k3="1"/>
<feColorMatrix type="matrix" values="0 0 0 0 0 0 0 0 0 0 0 0 0 0 0 0 0 0 0.13 0"/>
<feBlend mode="normal" in2="shape" result="effect2_innerShadow_58_2061"/>
</filter>
<filter id="filter1_d_58_2061" x="119.377" y="45.2397" width="116.887" height="32.1123" filterUnits="userSpaceOnUse" color-interpolation-filters="sRGB">
<feFlood flood-opacity="0" result="BackgroundImageFix"/>
<feColorMatrix in="SourceAlpha" type="matrix" values="0 0 0 0 0 0 0 0 0 0 0 0 0 0 0 0 0 0 127 0" result="hardAlpha"/>
<feOffset dx="2" dy="4"/>
<feComposite in2="hardAlpha" operator="out"/>
<feColorMatrix type="matrix" values="0 0 0 0 0.145098 0 0 0 0 0.152941 0 0 0 0 0.4 0 0 0 1 0"/>
<feBlend mode="normal" in2="BackgroundImageFix" result="effect1_dropShadow_58_2061"/>
<feBlend mode="normal" in="SourceGraphic" in2="effect1_dropShadow_58_2061" result="shape"/>
</filter>
<linearGradient id="paint0_linear_58_2061" x1="111.595" y1="10.5975" x2="108.755" y2="46.0098" gradientUnits="userSpaceOnUse">
<stop offset="0.389423" stop-color="#ABADAF"/>
<stop offset="0.591346" stop-color="#8B8B8C"/>
</linearGradient>
<linearGradient id="paint1_linear_58_2061" x1="111.595" y1="10.5975" x2="108.755" y2="46.0098" gradientUnits="userSpaceOnUse">
<stop offset="0.389423" stop-color="#ABADAF"/>
<stop offset="0.591346" stop-color="#8B8B8C"/>
</linearGradient>
</defs>
</svg>
